<svg width="1013" height="1024" viewBox="0 0 1013 1024" fill="none" xmlns="http://www.w3.org/2000/svg">
<path d="M254.691 707.489L258.939 709.075L265.339 702.731L268.851 707.489V687.891C261.884 683.757 261.657 669.936 259.279 662.064C258.259 658.778 250.952 658.495 255.484 644.392C257.07 639.521 263.187 640.937 263.583 640.597C273.268 632.214 276.78 623.549 273.552 610.012C273.212 608.596 266.472 606.84 268.907 601.233L264.206 603.611V595.625L268.681 589.565C260.751 584.014 263.413 578.747 248.743 579.823L245.062 586.733L221.726 589.395V582.371L218.158 587.073L212.607 584.297L212.211 575.235L207.51 577.67V570.534L202.809 572.969C201.959 565.946 206.264 557.167 198.051 555.241V549.351L202.809 551.73L202.525 537.909L187.459 534.964C184.287 535.191 178.793 546.179 166.219 541.704C164.803 541.194 164.747 537.966 163.387 537.456C159.026 535.814 155.854 538.986 155.175 533.492L150.927 535.191V525.732L146.226 528.111C145.659 517.972 149.228 510.609 141.298 503.472L141.468 495.033L146.169 497.412V483.195L150.87 485.631V478.494L155.005 480.137L160.329 469.092C165.823 472.944 172.336 470.338 177.547 471.528C178.85 471.811 180.663 479.514 188.592 476.229V450.231L183.891 452.61V439.639L188.592 445.53L188.762 426.839C196.578 426.669 203.319 423.894 202.809 414.888C209.152 421.402 219.461 416.077 216.969 426.669L220.82 421.911L248.913 426.272L252.312 421.968C258.599 438.847 278.706 429.558 287.882 432.446C293.319 434.145 294.905 442.528 306.629 436.071L306.969 445.19L314.955 447.852L316.258 440.942L330.248 443.094L330.588 449.778C337.781 448.589 344.238 455.272 348.996 456.178C352.394 456.858 359.361 452.157 362.136 452.95C363.552 453.346 363.382 457.028 366.214 457.991C387.171 464.901 404.786 470.451 425.516 473.906C431.633 474.926 442.395 476.285 444.037 482.572L447.039 481.44L448.285 487.953C457.064 489.879 451.683 476.399 452.986 471.414L448.285 473.793C449.531 468.073 447.266 463.825 442.904 460.426C442.225 459.916 440.072 461.672 439.393 461.276C436.617 459.577 428.688 451.137 424.666 454.932V447.796L419.965 450.231L418.493 442.868L401.274 435.788L400.934 429.161C393.118 433.522 388.36 423.667 386.208 422.648C355.736 407.865 328.719 388.494 293.999 374.9L291.11 367.367C283.634 368.783 284.03 364.479 281.198 363.119C278.366 361.76 272.589 365.102 273.608 358.248L268.907 359.381L268.624 372.068L259.788 375.07C258.316 380.451 260.638 386.738 259.448 392.005C259.222 393.082 251.406 395.46 254.747 403.107H245.345V395.97L252.425 398.292L250.103 381.81L254.747 391.212V367.65L259.448 372.351L259.562 359.777C251.519 352.528 235.093 355.699 235.886 341.653L231.185 344.032V329.872L226.484 334.573C225.861 322.792 239.511 314.069 240.644 301.552L245.289 306.253V296.794L249.99 299.173L250.103 288.865C237.642 283.824 218.158 281.275 221.67 263.717L216.969 264.906L221.67 261.394V244.855L226.371 249.557C220.141 245.025 239.681 224.862 241.154 224.352C246.874 222.256 267.151 219.934 272.079 223.446C275.987 230.072 278.196 241.061 287.428 240.381L287.768 249.67H297.17V242.533L301.872 244.969V237.832L306.573 240.268V230.809H344.351V240.268L348.543 238.625L353.81 249.727L358.511 247.348V256.807L363.212 252.105C362.816 271.193 377.486 243.1 386.718 249.67L386.831 242.647L419.569 237.606L419.852 226.108L415.151 228.487V207.247L419.852 211.948C417.36 199.827 433.276 194.446 434.295 183.968L452.873 181.306V188.386L465.957 188.612L467.033 169.525L462.388 183.685V168.845L471.847 150.664L476.492 155.365C477.115 139.845 495.862 139.562 508.436 141.771C509.626 141.998 509.343 144.943 510.759 145.283C513.534 146.019 521.124 145.793 523.163 146.869C524.692 147.662 531.602 157.404 533.754 159.33C534.151 159.726 540.268 158.593 542.477 164.201L542.59 178.983L537.889 176.605V195.466L541.401 188.386L543.78 195.522C551.992 192.181 568.191 190.311 566.209 202.602L570.91 200.223V212.004L575.611 207.303V221.463L580.312 219.084C580.595 227.977 582.804 247.064 570.91 242.647L570.74 249.5L551.992 249.727L547.291 282.747L551.936 278.046V292.206L547.235 289.827C546.668 294.585 548.197 300.249 547.178 304.724C546.725 306.649 542.873 305.347 542.307 309.708C541.684 314.466 543.1 320.243 542.477 325.227L537.776 322.848C540.155 328.456 533.471 330.212 533.131 331.628C531.489 338.424 534.717 367.877 533.018 370.029L525.995 367.707L528.374 405.486L533.075 403.107V422.024L537.776 419.646L539.079 440.999L547.008 440.602L547.235 433.806L551.936 436.241C552.899 429.558 550.52 420.382 551.992 414.265C552.446 412.452 556.184 412.792 556.58 411.036C557.77 405.995 555.901 399.199 556.637 393.761L561.281 398.462C558.676 385.265 569.551 381.867 566.039 367.764L570.74 370.142V353.604L575.441 355.983V346.524L584.164 343.522L584.957 327.663L589.658 330.042V318.261L594.359 325.341V306.479L599.06 308.858C597.078 301.948 601.496 290.224 608.519 294.698V280.539L603.818 282.917L603.478 273.798C602.402 272.099 571.533 267.681 565.586 265.642C563.207 264.849 556.58 262.47 556.58 259.355C578.556 256.806 596.511 262.357 616.901 269.041L649.979 254.881C659.438 252.955 660.797 258.789 662.213 259.129C672.012 261.394 686.002 259.582 690.023 268.984L704.013 259.922L740.319 264.396L740.659 292.433L745.36 290.054V297.191L740.659 294.812V311.351L731.2 309.028L731.03 317.354C742.755 329.419 741.282 339.727 740.602 356.209L735.901 353.83C736.978 366.008 736.411 372.578 729.728 382.377C718.57 386.058 708.771 388.72 696.933 388.097C694.894 387.984 692.629 384.586 689.853 384.586C685.322 384.586 682.49 392.628 675.637 384.529L671.049 389.4L660.401 384.586L654.454 393.365L623.811 396.933L617.355 405.033L613.22 403.333V410.47H603.761L603.535 422.081L594.302 422.251L594.132 431.54L584.843 431.71V469.489L580.142 462.409L579.802 473.906L571.703 476.399C570.174 469.828 566.945 473.963 564.227 472.604C560.715 470.848 562.188 466.996 557.826 466.996C547.461 466.996 548.481 472.944 544.119 474.926C538.286 477.588 522.823 476.285 515.573 478.891L514.044 486.084L509.399 483.705L508.946 490.219C502.376 492.598 494.22 497.129 495.183 505.002L488.16 502.566L485.781 519.105L481.08 516.726V528.564L476.378 526.185V545.103H466.92V552.126L471.621 547.425C472.187 552.126 470.658 557.903 471.677 562.321C472.13 564.134 475.869 563.794 476.265 565.549C477.568 571.1 475.529 579.143 476.265 585.147L471.621 580.446L470.488 584.694L449.475 582.655L446.926 587.129L405.579 592.283L405.466 608.709L400.821 604.008L392.098 616.412L386.661 637.029L382.017 629.949V644.109L386.718 641.73V662.97L382.017 655.89V678.319L386.718 677.13L386.944 702.108C379.524 708.848 382.187 714.738 382.073 724.367H372.614V738.527L368.423 736.828C366.497 744.588 359.927 743.455 359.021 743.908C357.888 744.531 357.832 750.082 350.015 750.252L316.031 740.906V747.986L311.274 743.285V755.066L304.817 754.33C300.399 760.277 296.321 761.58 288.731 762.146C274.854 763.109 279.895 758.521 275.364 756.708C268.624 753.99 262.054 758.408 263.98 748.043L254.577 750.422V707.942L254.691 707.489ZM428.971 252.332L402.067 250.01L399.802 253.918L391.589 251.935C393.571 260.261 384.112 263.377 377.542 261.508L377.259 268.248L367.913 268.418V289.657L363.212 287.279V294.359H372.614V303.817L377.316 299.116L382.073 320.356L386.774 317.977V336.895L395.95 337.291C396.346 346.297 408.184 350.772 405.692 360.457L410.393 355.756C408.864 368.5 424.496 371.955 419.852 386.455L424.553 384.076V391.892L428.801 393.931L426.932 400.615L443.471 402.937V410.074L448.172 407.695C447.435 419.759 465.504 419.816 462.445 433.636L470.375 433.352C472.017 445.02 483.232 442.245 488.952 450.911L498.694 450.344L500.054 438.28C492.407 443.264 487.367 425.706 485.101 420.212C484.761 419.363 481.646 419.362 481.249 417.776C480.003 412.792 481.872 405.939 481.136 400.558L476.492 409.96C480.796 400.445 472.017 395.064 471.791 394.214C470.601 389.173 472.47 382.377 471.734 376.939L467.09 384.019V369.859L462.388 372.238V360.401L457.687 362.779V350.942L452.986 353.321V334.403L448.285 336.782V315.485L443.584 317.864C442.848 312.483 444.717 305.63 443.527 300.589C442.848 297.814 434.748 278.33 434.182 276.121C432.709 269.947 435.088 260.828 434.125 254.144L429.481 265.925L429.141 252.105L428.971 252.332ZM417.53 528.111L415.151 523.41L413.678 528.281L396.29 525.788L396.177 532.812C382.583 533.945 363.552 532.812 350.638 535.247C349.619 535.417 338.857 542.95 333.193 544.083C320.053 546.802 319.43 546.292 308.442 550.087C296.264 554.335 271.059 552.069 273.495 570.59L268.794 568.212V577.67L273.495 575.291V591.83L278.196 587.129C275.534 598.571 282.501 601.119 284.37 610.975L300.625 614.883L311.161 610.691C311.67 599.307 335.572 593.643 346.05 587.809C363.722 577.954 382.47 563.567 403.823 555.751C418.606 550.313 437.354 544.989 452.76 542.157L448.115 525.732C442.281 523.183 438.09 532.982 437.354 532.925C432.936 532.812 421.891 528.451 420.928 523.353L417.416 528.054L417.53 528.111Z" fill="#C8526A" style="fill:#C8526A;fill:color(display-p3 0.7843 0.3216 0.4157);fill-opacity:1;"/>
<path d="M627.55 674.411C627.097 678.206 627.89 682.397 627.55 686.249L622.849 683.87L618.091 702.731L613.447 698.03V707.488L608.746 705.109L585.127 741.925L588.696 749.968C590.168 742.492 600.363 743.511 603.479 739.83C617.129 723.291 641.767 716.947 662.44 705.846C665.329 704.317 665.499 700.352 666.745 700.352L674.845 702.787V693.329L683.114 695.311C693.649 682.623 715.908 685.625 730.351 679.225L731.541 686.305L748.703 681.547C753.064 691.006 767.281 691.119 773.398 694.291C776.739 695.99 777.929 705.676 783.366 700.465V717.004L788.067 714.625V735.865L792.768 731.164V750.025L788.067 747.646V757.105L783.366 754.669V761.806L778.665 759.37L778.495 768.659C769.716 768.659 768.13 771.208 763.259 777.778C759.634 775.343 754.084 778.628 751.875 778.175C750.119 777.778 750.515 774.606 749.213 774.04C743.435 771.605 739.98 768.773 737.998 767.98C730.182 764.921 727.066 771.604 720.326 759.427C707.696 760.843 693.083 755.859 685.153 747.363L678.243 749.628L672.805 744.021C644.882 742.265 619.791 758.521 593.963 764.921C590.395 765.827 588.412 765.657 585.127 764.015V771.151L580.879 769.396L577.424 774.267L571.081 773.53L570.967 780.61L566.38 778.231C564.68 789.899 550.35 803.946 538.003 799.471L536.474 806.664L523.843 806.495L519.142 820.711C530.13 814.651 544.517 817.936 555.222 815.5C563.887 813.574 567.569 806.834 584.108 804.739C604.441 802.19 634.46 798.848 654.114 806.778C657.003 807.967 659.269 813.688 661.478 815.217C667.538 819.295 678.583 816.35 674.901 832.492L679.546 827.791L679.432 861.435L673.089 867.835L660.685 865.513L660.458 874.745C657.796 878.937 619.564 874.519 614.07 871.63C610.672 869.818 607.443 860.359 603.365 856.961C602.799 856.507 599.854 859.396 598.041 854.355L594.643 856.054V848.918L590.451 850.56C585.807 841.724 564.114 845.463 565.87 835.381C563.038 831.02 538.456 836.91 532.339 836.91C502.83 837.08 495.863 834.361 466.014 841.271C448.229 845.349 429.368 847.842 414.019 853.052C391.533 860.699 381.961 854.015 363.27 857.187C344.578 860.359 328.946 866.646 308.386 860.642C306.12 859.962 306.686 855.884 302.212 854.695C294.962 852.713 282.218 854.582 276.611 851.976C261.035 844.84 242.004 831.982 226.031 828.358L221.783 830.057V820.598C214.817 820.428 204.792 822.41 202.413 814.141L198.222 815.897V808.76L193.974 810.516C193.181 804.342 180.663 801.454 179.927 800.944C176.585 798.678 175.396 789.729 169.958 794.6C168.202 780.497 144.3 775.229 133.652 766.45C132.859 765.827 125.496 753.48 122.041 750.421C118.983 747.759 112.979 749.062 112.979 742.945L99.1586 745.04C97.516 750.988 102.104 748.552 103.746 751.611C104.483 752.97 108.391 760.277 108.504 760.843C110.883 770.698 102.67 778.061 117 780.27L122.721 805.248L127.422 804.059L123.061 822.637L132.293 826.885L132.18 837.137L127.478 835.947V853.676L132.18 851.297V865.513L127.478 863.134V884.431L122.777 882.052V905.671L118.586 904.028C113.375 908.276 114.395 911.788 112.526 916.659C110.26 922.436 110.43 921.756 108.504 929.913C108.108 931.725 96.6098 940.787 99.0454 945.715L94.5142 943.506L89.5864 957.496L84.9986 955.174L83.5261 962.594L71.0087 964.859L70.7821 974.091L66.6474 972.449C65.9111 978.34 60.0206 975.394 57.3585 977.207C53.3371 979.925 51.2414 989.951 43.5384 986.156L42.4623 992.953L37.8179 988.251C35.1558 1000.32 9.78119 1000.43 4.17386 991.31L0.0391846 992.953L4.7402 974.035L9.44131 976.414L14.1991 959.875L18.9001 962.254V952.795L23.6012 955.23V948.094L28.3023 950.529V938.748L33.0034 943.449V926.967L37.7046 931.668C39.0073 923.286 33.6831 912.524 42.4057 908.843V898.647L47.1634 901.026V875.085L51.8645 879.786L52.091 802.926C43.0853 794.77 48.5227 782.819 47.1634 771.208L42.4623 773.587V745.21L37.7612 747.589V726.293L33.0601 728.672V705.053L28.359 707.432V683.813L23.6579 688.514V671.975L18.9568 674.354V653.058L14.1991 655.437V622.415L9.498 629.495V615.336L4.7969 617.714V608.256L9.498 610.634V598.853L4.7969 603.555V556.374L0.0957932 558.752V509.136L4.7969 510.325V499.677L0.0957932 502.056V483.138H9.498L9.32809 471.527L0.0957932 471.357V459.52L4.7969 461.899V400.501L9.498 402.88V381.583L14.1991 383.962L14.3123 357.285C16.1248 355.699 23.4313 345.391 23.6012 344.541C24.6774 340.123 23.0915 334.403 23.7145 329.701L28.359 339.104V310.784L33.0601 315.485V301.325L37.7612 306.026V289.487L42.4623 291.866L47.22 273.005L51.9211 277.706V263.546L56.6222 265.982V258.845L61.3233 261.281V249.443L66.0244 251.822L70.8388 235.34L75.4832 237.662V230.525L80.1843 232.961C78.3719 226.901 83.7526 216.932 89.5864 221.123C88.8501 215.969 94.401 207.36 99.1021 211.721C97.2896 205.604 102.67 195.749 108.448 199.827C112.129 186.177 122.098 183.798 117.906 166.069C117.51 164.257 113.658 164.597 113.262 162.841C112.186 157.97 114.225 152.079 113.149 147.152C112.922 146.019 105.049 143.867 108.504 136.107L113.205 138.486V124.269L117.906 126.648V117.189L122.607 119.568L122.721 110.223C128.045 110.449 132.35 108.977 137.107 106.824C139.883 105.578 145.773 100.311 147.869 98.3849H177.605C181.513 99.2345 181.343 111.129 196.919 107.9L198.505 101.104L217.082 98.3283V88.8128C223.2 91.4182 229.94 87.68 232.319 82.0161L240.701 84.1117V74.6529L245.402 79.354L245.855 72.7838L293.829 46.3896L297.171 57.9442L283.351 60.6063L283.238 72.3306L259.619 69.9518V86.4906L257.297 81.7895L249.027 86.4906L244.269 81.7895L240.758 98.2716L231.412 98.4416L231.242 105.352L226.541 102.916V110.053C218.612 106.088 211.079 113.111 203.659 117.756L202.923 131.293L207.624 128.914V140.751L212.325 138.373V145.509L207.624 143.074L207.454 150.097L198.335 150.38L198.165 161.991L202.866 159.612V166.749L198.165 164.313V171.45L193.464 169.015L193.35 181.475C186.78 192.973 176.812 184.76 173.073 192.633L168.599 192.803L163.954 187.932L161.632 192.69L155.685 185.667L149.851 190.368C144.244 185.044 137.221 184.421 130.197 187.196L121.191 202.375L113.545 204.811L113.262 213.987L108.561 211.608L108.448 220.953L97.6861 223.162L94.3442 232.904L89.6998 230.469V242.306L84.9986 239.928V250.123C77.0125 253.408 80.9773 260.714 80.2409 268.247L75.5965 263.546V280.085H66.1377V296.624L61.4366 291.923V306.083L56.7355 303.704V315.542L52.0344 313.163V336.781L47.3333 334.403C49.1458 346.807 46.0872 353.094 42.5756 362.779L37.8745 360.4V384.019L33.1734 381.64V412.339L28.4723 409.96V469.828L23.8278 476.002L28.4723 477.588V490.218L33.1167 487.84V495.599C42.1225 499.847 36.3452 512.025 37.8745 520.917L42.5756 518.482V525.618L47.2767 523.183C48.1263 529.243 46.0306 537.229 47.3333 542.837C47.5598 543.686 55.9992 547.538 52.0344 556.26L56.6789 549.18V563.34L61.3799 560.961V570.42L66.081 568.041L66.4208 581.918C72.9344 583.957 77.0125 583.504 75.5965 591.717L80.2976 589.338V601.176L84.9986 598.797V608.256L89.1901 606.613L94.4576 620.093L98.5921 618.451C101.877 620.603 103.86 628.306 105.389 629.665C106.069 630.232 118.813 636.292 120.965 637.312C141.582 647.11 169.392 661.837 191.708 655.267C193.634 654.7 193.634 651.698 194.71 651.358C197.598 650.566 220.254 651.415 221.84 653.171L216.573 661.837L212.438 660.194V683.813L217.139 679.112V693.272L212.438 690.893V702.731L207.737 700.352V709.811L203.546 708.168L196.806 719.496L188.989 719.326L188.819 726.349L176.189 726.179C171.771 734.959 147.416 733.939 138.41 732.693C132.406 731.9 125.949 723.914 118.076 726.293L118.416 737.791C124.986 737.677 126.402 743.341 129.348 745.04C131.443 746.23 136.201 745.607 139.996 747.589C148.549 752.064 162.652 773.587 168.259 776.532C185.987 785.764 204.395 791.655 218.838 801.85C223.086 804.852 228.41 801.85 226.655 811.252L231.356 806.551C229.6 818.162 246.252 818.389 254.861 818.559L255.144 825.299C264.886 825.695 276.894 827.678 286.239 830.34C300.683 834.475 318.921 838.043 336.422 839.572C348.543 840.592 378.845 833.852 377.826 848.974C383.093 848.068 386.888 847.898 392.099 845.803C396.177 844.16 396.46 840.705 397.14 840.308C406.656 835.154 425.63 837.42 440.979 830.34C449.645 826.375 458.368 825.469 464.598 816.18L476.662 815.897L477.059 809.327C480.57 808.194 484.592 808.873 488.103 807.344C492.238 805.475 503.623 794.43 505.888 793.241C512.515 789.786 524.976 790.579 524.013 778.175L528.714 780.554V771.095L532.962 772.794L538.739 764.751L542.817 766.337L547.632 749.855L552.333 752.234L557.091 733.373L561.792 738.074C562.358 733.373 560.829 727.652 561.848 723.178C562.301 721.252 566.153 722.555 566.719 718.193C567.342 713.436 565.926 707.658 566.549 702.674L571.251 705.053V683.756L566.549 686.135V660.194L561.848 667.274C561.112 661.893 562.981 655.04 561.792 649.999C561.565 649.149 553.126 645.298 557.091 636.575L552.446 641.277V622.415L547.745 624.794C549.671 615.449 543.78 618.281 539.985 615.336C534.775 611.371 534.888 612.674 534.152 612.22C530.81 610.011 529.62 600.892 524.126 605.933V598.797L519.935 600.439C517.839 592.736 511.496 593.926 510.533 593.416C509.173 592.68 508.097 585.09 500.564 589.395V570.477L495.863 572.856V551.559L500.564 553.938C501.3 548.557 499.431 541.647 500.621 536.663C500.904 535.53 508.664 533.208 505.322 525.562L509.457 527.204C515.177 520.974 514.101 514.8 523.73 513.157L524.296 506.871C531.376 505.794 544.8 505.908 550.747 504.208C552.956 503.585 552.673 500.414 554.089 499.621C558.62 497.072 575.045 495.656 580.936 495.996C589.602 496.562 590.565 502.679 599.514 502.113L599.684 516.159L604.385 513.781V525.618L609.086 523.239V546.858L613.787 542.157V601.176L618.488 598.797L618.715 661.497C612.937 667.444 612.937 670.276 613.843 679.055L621.603 678.942C624.095 675.6 623.982 675.43 628.003 674.297C629.249 663.876 639.501 657.306 637.462 645.978L642.163 648.357V636.519L646.865 638.898V629.439L651.566 631.818C650.886 620.66 665.442 622.019 661.024 608.142L670.257 607.972L670.427 598.683L675.128 601.062L679.885 584.523L684.587 586.902V575.121L689.288 579.822V570.364L698.577 570.08L699.086 563.737L711.547 561.188L712.906 553.825L717.607 558.526C717.664 556.544 717.324 553.938 718.457 552.295C729.445 535.87 757.029 537.286 773.114 532.075C774.474 531.622 774.474 526.921 780.704 525.958C783.366 525.562 804.266 523.353 805.512 523.579C810.837 524.429 820.012 531.622 826.072 533.944C832.133 536.267 839.553 532.189 840.912 538.985L845.047 537.343L845.5 543.856L854.222 547.141L854.562 556.317L859.263 553.938C857.904 564.7 874.839 566.852 873.48 577.613L878.181 575.235V598.853L873.48 587.072L873.593 616.185L864.361 620.433L864.021 629.552L859.32 627.117V634.253C853.6 629.949 856.148 635.726 851.107 636.689C833.889 640.031 809.024 638.558 794.807 631.874C793.448 631.251 793.335 627.683 792.825 627.456C790.729 626.55 785.745 629.892 780.874 629.099C774.134 628.023 762.749 618.96 759.068 615.845C750.005 614.316 731.088 627.23 727.123 613.013L723.668 612.9C720.723 619.98 702.711 620.15 694.272 620.093C695.801 630.005 682.944 632.611 675.241 629.439C677.733 639.804 667.255 635.216 665.329 642.976L661.138 641.163V648.3L656.38 652.944L651.679 648.243L646.921 664.725L643.409 659.968L642.22 667.104L637.519 664.669L637.349 673.958C634.8 676.337 628.91 673.958 628.06 674.128L627.55 674.411Z" fill="#C8526A" style="fill:#C8526A;fill:color(display-p3 0.7843 0.3216 0.4157);fill-opacity:1;"/>
<path d="M589.771 56.1317C589.488 55.6786 582.804 57.0946 585.013 48.9952L580.312 51.374V41.9152L575.611 44.3507V37.2141L570.967 39.593L566.152 27.8685L561.508 32.5696L558.676 24.6967L528.487 23.1108V34.8919L518.122 33.0794C507.927 48.2022 488.386 45.8799 472.64 41.0656L466.75 28.265L458.084 24.8666L457.631 18.3531L447.209 15.7476L429.651 18.8062L429.311 25.4896L425.176 23.9037L419.965 29.5677L419.852 41.9718L416.34 37.2141L415.151 44.3507L410.45 41.9152L403.313 60.7762L400.934 51.374L391.532 60.7762L405.635 23.0542H372.671L372.558 30.1341L368.31 28.4915C366.611 35.6281 356.076 27.1889 358.398 39.593L354.263 38.0071L320.732 51.4873L320.619 69.1023L315.918 70.2351L310.651 61.5125L306.459 63.2117V43.671L345.88 23.6205C377.202 21.6948 401.501 7.53486 432.936 4.41967C441.998 3.51344 459.386 0.341615 465.22 0.171696C474.792 -0.111503 487.99 6.68528 496.542 6.74192C499.657 6.74192 501.13 -0.621194 510.532 0.681519C543.043 5.15605 575.951 0.68147 608.689 10.3669C622.566 14.5016 636.329 23.8472 650.659 25.8296L650.942 32.513C652.981 32.2298 654.567 30.5306 656.719 30.5873C673.485 31.2669 696.537 42.0284 708.771 50.9775L716.871 49.0518L719.193 57.4344C724.177 60.8895 738.903 54.829 741.112 64.9109L745.304 63.1551V70.2917L759.464 72.6139V82.0727L763.768 80.2602C764.618 88.9261 777.588 86.434 778.155 87.1137C778.721 87.85 777.928 91.305 779.288 92.8909C781.893 96.0061 784.159 99.5178 787.784 96.2327C789.426 111.525 809.193 111.752 812.932 127.101L820.578 129.537L820.918 138.712L825.619 136.277V143.413C834.341 141.261 843.064 149.814 839.836 162.275L844.48 157.573L845.556 164.314L858.243 167.372L858.64 176.434L863.341 174.056C856.374 181.985 884.014 208.662 886.96 204.754C890.585 190.708 879.597 187.253 882.259 174.112L877.614 178.813V152.872L872.913 159.952V137.58L877.558 145.792V108.014L882.259 110.393V100.197L887.016 89.1527L891.718 91.5316C889.905 85.4145 895.456 75.3326 901.176 79.7505V70.2917L905.878 72.6705V63.2117L910.579 67.9128V58.454L915.28 60.8895L915.393 53.8095C926.834 56.3583 937.822 45.7666 938.955 34.9485L942.976 36.4778C950.736 27.0189 971.693 32.0599 972.033 16.1441L985.966 16.0308L986.079 23.1675L990.214 21.5249L995.425 27.1889L995.538 41.9718L991.347 40.216L975.204 61.0594L967.558 63.4949L967.218 79.6939L962.574 72.6139C966.539 81.3364 958.099 85.1879 957.873 86.0375C956.457 92.0413 959.175 100.367 957.759 106.371C957.306 108.297 953.455 106.994 952.888 111.356C951.982 118.209 953.908 126.761 953.058 133.898L948.357 126.818V195.239L953.058 181.079V216.479L957.759 207.077V230.639L962.461 225.938V249.5L967.162 244.799V261.337L971.863 258.959V277.876L976.564 275.497V289.657L981.265 284.956V299.116L985.966 296.737V322.678L990.667 310.897V339.217L995.368 322.735V419.475L1000.07 414.774V478.494L1004.77 469.092V546.971L1009.47 544.592V579.992L1004.77 570.59V598.91L1000.07 596.531V629.609L995.368 627.23V669.766L990.667 667.387V695.764L983.757 695.707L981.265 688.684V700.465L985.966 698.086V721.705L981.265 712.303C986.476 729.861 971.919 733.599 971.806 747.702L967.615 745.947C962.574 756.595 946.205 760.446 948.187 773.587L943.486 768.886L938.728 785.424L934.027 783.046L929.27 799.584L924.569 797.206V806.664L919.867 804.286C920.83 809.44 915.166 817.936 910.465 813.801C908.709 828.301 890.981 831.586 896.249 849.144L900.893 844.443V856.224L910.465 857.697C913.297 869.704 902.083 871.8 905.651 884.544L900.95 882.165C901.913 887.319 896.192 895.985 891.491 891.567V898.704L886.79 896.268V908.106L882.485 906.294C881.183 914.393 871.667 912.071 868.439 913.657C867.589 914.053 865.38 920 858.753 920.907C854.505 921.473 839.439 919.661 834.625 918.528C831.113 917.678 828.338 913.317 824.09 912.807C817.52 911.958 809.816 917.565 801.83 912.864C804.775 924.871 794.354 932.688 783.026 931.838L782.913 941.24L778.721 939.541C776.682 942.656 772.661 948.773 769.036 949.68C760.653 951.832 753.347 947.018 754.196 957.156L745.7 960.781L743.831 967.465C735.335 964.689 733.296 974.601 730.521 975.904C729.388 976.414 721.572 975.394 713.925 979.076C703.787 983.89 689.117 990.234 674.674 994.142C655.7 999.296 624.548 999.126 611.351 1014.31L576.574 1014.59C574.365 1000.03 569.268 1011.19 561.735 1013.85C558.279 1015.1 554.088 1013.68 551.03 1014.48C548.877 1015.04 548.991 1019.74 544.799 1020.54C538.965 1021.67 534.604 1015.61 528.09 1019.06L531.602 1007.28L533.924 1014.36C542.59 1011.08 542.42 1004 542.194 995.501L546.895 997.88V988.421L551.596 990.857L551.879 984.173L564.397 981.624L565.756 974.261L570.457 976.64V964.802L565.756 967.181L570.457 955.344L575.158 957.722V948.264L579.859 950.643V927.024L584.56 931.725V912.864L598.437 915.583L598.777 927.08L603.478 924.701V936.539L608.179 934.16V941.297L603.478 938.918C602.458 945.602 604.894 954.777 603.421 960.894C603.138 962.027 595.322 964.349 598.72 971.996L594.019 969.617C595.662 977.15 589.488 982.757 584.674 987.855L584.504 994.368L589.205 995.501C589.205 993.575 588.525 992.726 590.507 991.48C612.767 977.943 650.262 964.406 679.828 957.326C695.178 953.644 714.492 949.057 729.105 941.184C731.427 939.938 729.728 934.557 735.505 938.918L737.034 931.725C743.378 929.912 752.95 930.819 758.501 928.723C759.35 928.44 767.79 917.338 770.339 915.413C775.946 911.221 784.838 913.26 782.743 903.462L786.877 905.047L792.088 899.383L796.903 860.982L792.202 863.361V856.224L796.903 858.603V839.742L801.604 849.144V830.283L806.305 834.984V825.525L811.006 827.961V820.824L840.912 812.045L877.048 823.203L877.784 811.988L886.563 799.641L891.208 802.02V794.883L895.909 797.319V787.86L900.61 790.239V778.401L905.311 780.837V773.7L910.012 776.136L914.827 759.653L919.471 761.976V754.839L924.172 757.275V745.437L928.873 747.816L933.631 731.277L938.332 733.712V726.576L943.033 729.011L943.373 712.756L952.209 708.621C953.965 697.746 948.64 688.457 957.42 680.754L957.25 658.155L961.951 660.534V641.673L966.652 646.374V608.595L971.353 610.974V488.236L966.652 490.615V464.674L961.951 471.754V452.893L957.25 455.272V445.813L952.549 448.192C955.664 437.204 948.357 435.108 947.791 426.895L943.09 429.274V412.735L938.389 417.436V407.978L933.687 410.413V403.276L928.986 405.712L924.172 386.908L919.641 389.116L914.827 372.691L910.126 377.392L909.616 370.878C904.971 368.103 898.684 366.687 894.153 363.912C887.073 359.551 882.542 352.074 876.425 347.543C876.085 347.316 868.552 346.07 868.212 345.844C866.683 344.824 862.775 337.971 862.322 337.801C859.943 336.951 854.505 339.33 849.861 338.481C836.437 336.102 831.509 327.209 818.652 325.68L814.348 330.211L787.5 325.34V306.762L796.789 306.593V297.077H806.248L811.006 282.917L815.65 287.618L820.465 273.515L824.543 275.044C825.846 268.644 833.492 271.646 839.439 270.06C857.224 265.415 871.497 256.919 890.245 266.152L892.397 261.621L895.909 266.378V254.597L891.208 256.976V240.437L886.507 245.138L881.749 228.6L877.048 230.979V221.52L872.347 223.899V214.44L867.646 216.819V207.36L862.945 209.795V202.659L858.81 204.301L853.429 193.313L849.351 194.842L844.027 183.798L839.326 186.177V176.718L834.625 179.097V167.259L829.924 169.638V160.179L825.222 162.614V155.478L820.521 157.913V150.777L816.33 152.476L810.496 144.49L806.361 146.132L805.908 139.619L797.356 136.05L796.733 129.877L787.614 129.367L787.444 122.457L782.743 124.892V117.756H773.34L772.887 111.242L764.901 110.449L763.825 103.652L759.18 108.354C759.973 102.803 754.31 94.6467 749.722 98.9513V91.8148L745.021 94.2502L744.907 87.1703L738.564 87.9066L735.109 83.0356L730.917 84.7914V77.6548L726.669 79.4673L692.742 52.3369C672.465 54.3193 649.356 45.2003 635.196 32.7395C626.077 38.63 603.761 36.1946 601.949 25.7163L584.617 23.4506V30.5306L589.318 28.1517L590.791 35.4583L603.478 37.6105V58.8504L594.076 56.4716V63.5515L603.478 61.2294V82.4693L608.179 73.067V91.9281C602.911 88.3598 602.402 89.6625 603.478 95.4397C603.931 97.7619 610.161 90.5687 608.179 98.9513L600.136 101.5L598.211 97.3654L594.019 99.008V91.8714L589.261 94.2502C587.902 87.9066 591.13 59.3602 589.261 56.4716L589.771 56.1317Z" fill="#C8526A" style="fill:#C8526A;fill:color(display-p3 0.7843 0.3216 0.4157);fill-opacity:1;"/>
<path d="M400.991 910.428V931.668L405.692 926.967V952.908L410.393 950.529V962.366L415.094 959.987V978.905L419.795 976.47V983.606L424.496 981.227C423.194 986.268 433.672 997.879 437.467 995.954L438.713 1002.47L443.414 995.331L448.115 997.766C444.603 989.044 451.57 986.268 452.08 985.192C453.269 982.304 455.875 972.618 458.197 970.183C460.802 967.464 466.75 968.71 467.599 963.159C468.789 962.65 491.728 962.196 493.88 962.536C495.126 962.706 501.186 974.261 509.513 964.745V974.204L514.214 971.825V990.686L518.915 978.905V1002.47L523.616 995.387L518.348 1015.95C500.054 1018.61 481.589 1023.08 463.408 1018.38C461.199 1010.96 456.271 1016.85 449.361 1016.74C443.81 1016.68 417.756 1016.85 415.491 1013.57L414.981 1007.17L411.582 1008.87C407.164 1004.56 395.44 1000.03 396.12 990.63L391.419 993.008V978.848L386.718 983.55V971.768L382.016 974.147V964.688L377.315 967.067V948.15L382.016 949.339L377.315 945.828V929.289L382.016 936.369C378.958 925.437 385.981 923.398 386.831 915.185L391.475 917.564L391.645 910.541H400.934L400.991 910.428Z" fill="#C8526A" style="fill:#C8526A;fill:color(display-p3 0.7843 0.3216 0.4157);fill-opacity:1;"/>
<path d="M134.332 175.302C124.873 188.669 115.64 202.206 105.898 215.346C103.633 218.348 99.045 219.651 96.7228 222.653C90.8322 230.186 85.5647 238.285 80.0707 246.158" stroke="#C8526A" style="stroke:#C8526A;stroke:color(display-p3 0.7843 0.3216 0.4157);stroke-opacity:1;" stroke-width="2" stroke-linecap="round" stroke-linejoin="round"/>
<path d="M817.52 142.281C828.735 150.607 838.477 160.236 844.651 172.98" stroke="#C8526A" style="stroke:#C8526A;stroke:color(display-p3 0.7843 0.3216 0.4157);stroke-opacity:1;" stroke-width="2" stroke-linecap="round" stroke-linejoin="round"/>
<path d="M156.761 774.719C164.634 779.816 172.507 784.97 180.38 790.068" stroke="#C8526A" style="stroke:#C8526A;stroke:color(display-p3 0.7843 0.3216 0.4157);stroke-opacity:1;" stroke-width="2" stroke-linecap="round" stroke-linejoin="round"/>
<path d="M375.05 852.598C382.527 852.994 390.003 853.391 397.48 853.787" stroke="#C8526A" style="stroke:#C8526A;stroke:color(display-p3 0.7843 0.3216 0.4157);stroke-opacity:1;" stroke-width="2" stroke-linecap="round" stroke-linejoin="round"/>
<path d="M415.151 846.141C425.006 844.782 434.805 843.366 444.66 842.007" stroke="#C8526A" style="stroke:#C8526A;stroke:color(display-p3 0.7843 0.3216 0.4157);stroke-opacity:1;" stroke-width="2" stroke-linecap="round" stroke-linejoin="round"/>
<path d="M652.301 644.959C646.014 655.947 639.727 666.992 633.44 677.98" stroke="#C8526A" style="stroke:#C8526A;stroke:color(display-p3 0.7843 0.3216 0.4157);stroke-opacity:1;" stroke-width="2" stroke-linecap="round" stroke-linejoin="round"/>
<path d="M621.659 282.691C607.726 269.607 590.281 266.265 572.1 264.906C568.135 264.622 564.227 263.433 560.319 262.64" stroke="#C8526A" style="stroke:#C8526A;stroke:color(display-p3 0.7843 0.3216 0.4157);stroke-opacity:1;" stroke-width="2" stroke-linecap="round" stroke-linejoin="round"/>
<path d="M416.34 20.7319C400.594 22.7143 384.849 24.3569 369.159 26.7924C364.232 27.5854 359.7 30.5306 354.943 32.513" stroke="#C8526A" style="stroke:#C8526A;stroke:color(display-p3 0.7843 0.3216 0.4157);stroke-opacity:1;" stroke-width="2" stroke-linecap="round" stroke-linejoin="round"/>
<path d="M316.597 58.4541C317.957 62.7587 319.373 67.1199 320.732 71.4246" stroke="#C8526A" style="stroke:#C8526A;stroke:color(display-p3 0.7843 0.3216 0.4157);stroke-opacity:1;" stroke-width="2" stroke-linecap="round" stroke-linejoin="round"/>
<path d="M404.502 62.0231C407.674 52.9607 410.79 43.9549 413.961 34.8926" stroke="#C8526A" style="stroke:#C8526A;stroke:color(display-p3 0.7843 0.3216 0.4157);stroke-opacity:1;" stroke-width="2" stroke-linecap="round" stroke-linejoin="round"/>
<path d="M429.311 15.4077C439.167 14.8413 448.965 14.2183 458.821 13.6519" stroke="#C8526A" style="stroke:#C8526A;stroke:color(display-p3 0.7843 0.3216 0.4157);stroke-opacity:1;" stroke-width="2" stroke-linecap="round" stroke-linejoin="round"/>
<path d="M635.819 29.0015C640.52 31.7768 645.391 34.3256 649.923 37.3275C653.661 39.763 657.002 42.4817 659.381 36.0814" stroke="#C8526A" style="stroke:#C8526A;stroke:color(display-p3 0.7843 0.3216 0.4157);stroke-opacity:1;" stroke-width="2" stroke-linecap="round" stroke-linejoin="round"/>
<path d="M212.211 144.603H203.941" stroke="#C8526A" style="stroke:#C8526A;stroke:color(display-p3 0.7843 0.3216 0.4157);stroke-opacity:1;" stroke-width="2" stroke-linecap="round" stroke-linejoin="round"/>
<path d="M238.152 329.871H231.015C230.675 331.853 230.279 333.779 229.939 335.762" stroke="#C8526A" style="stroke:#C8526A;stroke:color(display-p3 0.7843 0.3216 0.4157);stroke-opacity:1;" stroke-width="2" stroke-linecap="round" stroke-linejoin="round"/>
<path d="M895.399 264.963V274.422" stroke="#C8526A" style="stroke:#C8526A;stroke:color(display-p3 0.7843 0.3216 0.4157);stroke-opacity:1;" stroke-width="2" stroke-linecap="round" stroke-linejoin="round"/>
<path d="M261.771 574.159C274.968 586.223 275.081 604.461 283.011 619.018" stroke="#C8526A" style="stroke:#C8526A;stroke:color(display-p3 0.7843 0.3216 0.4157);stroke-opacity:1;" stroke-width="2" stroke-linecap="round" stroke-linejoin="round"/>
<path d="M543.78 191.84V203.621" stroke="#C8526A" style="stroke:#C8526A;stroke:color(display-p3 0.7843 0.3216 0.4157);stroke-opacity:1;" stroke-width="2" stroke-linecap="round" stroke-linejoin="round"/>
<path d="M594.53 53.7529C595.323 58.8505 596.116 64.0048 596.909 69.1023" stroke="#C8526A" style="stroke:#C8526A;stroke:color(display-p3 0.7843 0.3216 0.4157);stroke-opacity:1;" stroke-width="2" stroke-linecap="round" stroke-linejoin="round"/>
<path d="M482.439 170.601H465.9V184.761" stroke="#C8526A" style="stroke:#C8526A;stroke:color(display-p3 0.7843 0.3216 0.4157);stroke-opacity:1;" stroke-width="2" stroke-linecap="round" stroke-linejoin="round"/>
<path d="M424.61 245.479C415.944 247.234 407.278 248.99 398.669 250.803" stroke="#C8526A" style="stroke:#C8526A;stroke:color(display-p3 0.7843 0.3216 0.4157);stroke-opacity:1;" stroke-width="2" stroke-linecap="round" stroke-linejoin="round"/>
<path d="M421.042 521.031V529.301" stroke="#C8526A" style="stroke:#C8526A;stroke:color(display-p3 0.7843 0.3216 0.4157);stroke-opacity:1;" stroke-width="2" stroke-linecap="round" stroke-linejoin="round"/>
<path d="M295.981 50.2412C296.831 57.3778 291.054 58.4539 286.522 59.4734C280.009 60.9461 277.12 63.6082 280.065 70.2916" stroke="#C8526A" style="stroke:#C8526A;stroke:color(display-p3 0.7843 0.3216 0.4157);stroke-opacity:1;" stroke-width="2" stroke-linecap="round" stroke-linejoin="round"/>
<path d="M195.671 450.231H188.025C187.798 447.513 187.572 444.737 187.402 441.962" stroke="#C8526A" style="stroke:#C8526A;stroke:color(display-p3 0.7843 0.3216 0.4157);stroke-opacity:1;" stroke-width="2" stroke-linecap="round" stroke-linejoin="round"/>
<path d="M660.571 39.5928C662.554 40.3857 664.479 41.1787 666.462 41.9716" stroke="#C8526A" style="stroke:#C8526A;stroke:color(display-p3 0.7843 0.3216 0.4157);stroke-opacity:1;" stroke-width="2" stroke-linecap="round" stroke-linejoin="round"/>
<path d="M258.202 371.162C258.033 379.488 263.413 388.324 255.823 395.97" stroke="#C8526A" style="stroke:#C8526A;stroke:color(display-p3 0.7843 0.3216 0.4157);stroke-opacity:1;" stroke-width="2" stroke-linecap="round" stroke-linejoin="round"/>
<path d="M237.586 91.5317C223.992 100.991 210.455 110.393 196.862 119.852" stroke="#C8526A" style="stroke:#C8526A;stroke:color(display-p3 0.7843 0.3216 0.4157);stroke-opacity:1;" stroke-width="2" stroke-linecap="round" stroke-linejoin="round"/>
<path d="M164.973 177.681C164.577 183.175 164.18 188.669 163.784 194.219" stroke="#C8526A" style="stroke:#C8526A;stroke:color(display-p3 0.7843 0.3216 0.4157);stroke-opacity:1;" stroke-width="2" stroke-linecap="round" stroke-linejoin="round"/>
<path d="M253.502 425.479C253.105 430.974 252.709 436.467 252.312 442.018" stroke="#C8526A" style="stroke:#C8526A;stroke:color(display-p3 0.7843 0.3216 0.4157);stroke-opacity:1;" stroke-width="2" stroke-linecap="round" stroke-linejoin="round"/>
<path d="M245.232 274.421C244.835 279.122 244.439 283.88 244.042 288.581" stroke="#C8526A" style="stroke:#C8526A;stroke:color(display-p3 0.7843 0.3216 0.4157);stroke-opacity:1;" stroke-width="2" stroke-linecap="round" stroke-linejoin="round"/>
<path d="M857.62 267.341C858.017 272.042 858.413 276.8 858.81 281.501" stroke="#C8526A" style="stroke:#C8526A;stroke:color(display-p3 0.7843 0.3216 0.4157);stroke-opacity:1;" stroke-width="2" stroke-linecap="round" stroke-linejoin="round"/>
<path d="M476.492 1008.36C476.095 1013.06 475.699 1017.82 475.302 1022.52" stroke="#C8526A" style="stroke:#C8526A;stroke:color(display-p3 0.7843 0.3216 0.4157);stroke-opacity:1;" stroke-width="2" stroke-linecap="round" stroke-linejoin="round"/>
<path d="M838.759 814.878C839.155 819.579 839.552 824.337 839.948 829.038" stroke="#C8526A" style="stroke:#C8526A;stroke:color(display-p3 0.7843 0.3216 0.4157);stroke-opacity:1;" stroke-width="2" stroke-linecap="round" stroke-linejoin="round"/>
<path d="M981.548 19.543V36.0818" stroke="#C8526A" style="stroke:#C8526A;stroke:color(display-p3 0.7843 0.3216 0.4157);stroke-opacity:1;" stroke-width="2" stroke-linecap="round" stroke-linejoin="round"/>
<path d="M996.899 326.36C996.502 331.854 996.106 337.348 995.709 342.899" stroke="#C8526A" style="stroke:#C8526A;stroke:color(display-p3 0.7843 0.3216 0.4157);stroke-opacity:1;" stroke-width="2" stroke-linecap="round" stroke-linejoin="round"/>
<path d="M749.099 538.759C749.495 543.46 749.892 548.218 750.288 552.919" stroke="#C8526A" style="stroke:#C8526A;stroke:color(display-p3 0.7843 0.3216 0.4157);stroke-opacity:1;" stroke-width="2" stroke-linecap="round" stroke-linejoin="round"/>
<path d="M712.51 375.919C712.906 380.62 713.302 385.378 713.699 390.079" stroke="#C8526A" style="stroke:#C8526A;stroke:color(display-p3 0.7843 0.3216 0.4157);stroke-opacity:1;" stroke-width="2" stroke-linecap="round" stroke-linejoin="round"/>
<path d="M515.46 146.982C515.064 151.683 514.667 156.441 514.271 161.142" stroke="#C8526A" style="stroke:#C8526A;stroke:color(display-p3 0.7843 0.3216 0.4157);stroke-opacity:1;" stroke-width="2" stroke-linecap="round" stroke-linejoin="round"/>
<path d="M104.822 734.619V748.779" stroke="#C8526A" style="stroke:#C8526A;stroke:color(display-p3 0.7843 0.3216 0.4157);stroke-opacity:1;" stroke-width="2" stroke-linecap="round" stroke-linejoin="round"/>
<path d="M854.109 326.36C853.713 331.061 853.316 335.819 852.92 340.52" stroke="#C8526A" style="stroke:#C8526A;stroke:color(display-p3 0.7843 0.3216 0.4157);stroke-opacity:1;" stroke-width="2" stroke-linecap="round" stroke-linejoin="round"/>
<path d="M536.701 508.061C537.097 512.762 537.494 517.519 537.89 522.22" stroke="#C8526A" style="stroke:#C8526A;stroke:color(display-p3 0.7843 0.3216 0.4157);stroke-opacity:1;" stroke-width="2" stroke-linecap="round" stroke-linejoin="round"/>
<path d="M400.992 418.399C400.595 423.101 400.199 427.858 399.802 432.559" stroke="#C8526A" style="stroke:#C8526A;stroke:color(display-p3 0.7843 0.3216 0.4157);stroke-opacity:1;" stroke-width="2" stroke-linecap="round" stroke-linejoin="round"/>
<path d="M287.712 434.882C286.919 439.583 286.126 444.341 285.333 449.042" stroke="#C8526A" style="stroke:#C8526A;stroke:color(display-p3 0.7843 0.3216 0.4157);stroke-opacity:1;" stroke-width="2" stroke-linecap="round" stroke-linejoin="round"/>
<path d="M600.42 90.3423C603.478 92.8344 599.74 104.389 609.878 97.4222" stroke="#C8526A" style="stroke:#C8526A;stroke:color(display-p3 0.7843 0.3216 0.4157);stroke-opacity:1;" stroke-width="2" stroke-linecap="round" stroke-linejoin="round"/>
<path d="M872.97 902.159C873.366 906.86 873.763 911.618 874.159 916.319" stroke="#C8526A" style="stroke:#C8526A;stroke:color(display-p3 0.7843 0.3216 0.4157);stroke-opacity:1;" stroke-width="2" stroke-linecap="round" stroke-linejoin="round"/>
<path d="M858.809 909.24C859.206 913.941 859.602 918.699 859.999 923.4" stroke="#C8526A" style="stroke:#C8526A;stroke:color(display-p3 0.7843 0.3216 0.4157);stroke-opacity:1;" stroke-width="2" stroke-linecap="round" stroke-linejoin="round"/>
<path d="M839.948 906.917C839.552 911.618 839.155 916.376 838.759 921.077" stroke="#C8526A" style="stroke:#C8526A;stroke:color(display-p3 0.7843 0.3216 0.4157);stroke-opacity:1;" stroke-width="2" stroke-linecap="round" stroke-linejoin="round"/>
<path d="M267.661 706.299C268.058 711 268.454 715.758 268.851 720.459" stroke="#C8526A" style="stroke:#C8526A;stroke:color(display-p3 0.7843 0.3216 0.4157);stroke-opacity:1;" stroke-width="2" stroke-linecap="round" stroke-linejoin="round"/>
<path d="M954.417 184.761C954.02 189.462 953.624 194.22 953.228 198.921" stroke="#C8526A" style="stroke:#C8526A;stroke:color(display-p3 0.7843 0.3216 0.4157);stroke-opacity:1;" stroke-width="2" stroke-linecap="round" stroke-linejoin="round"/>
<path d="M181.512 177.681C182.305 182.382 183.098 187.139 183.891 191.841" stroke="#C8526A" style="stroke:#C8526A;stroke:color(display-p3 0.7843 0.3216 0.4157);stroke-opacity:1;" stroke-width="2" stroke-linecap="round" stroke-linejoin="round"/>
<path d="M581.559 967.068C577.651 967.465 573.686 967.861 569.778 968.258" stroke="#C8526A" style="stroke:#C8526A;stroke:color(display-p3 0.7843 0.3216 0.4157);stroke-opacity:1;" stroke-width="2" stroke-linecap="round" stroke-linejoin="round"/>
<path d="M336.082 231.941C335.686 236.246 335.289 240.607 334.893 244.912" stroke="#C8526A" style="stroke:#C8526A;stroke:color(display-p3 0.7843 0.3216 0.4157);stroke-opacity:1;" stroke-width="2" stroke-linecap="round" stroke-linejoin="round"/>
<path d="M306.574 367.65C306.177 371.955 305.781 376.316 305.384 380.621" stroke="#C8526A" style="stroke:#C8526A;stroke:color(display-p3 0.7843 0.3216 0.4157);stroke-opacity:1;" stroke-width="2" stroke-linecap="round" stroke-linejoin="round"/>
<path d="M434.012 254.371C433.615 258.675 433.219 263.036 432.822 267.341" stroke="#C8526A" style="stroke:#C8526A;stroke:color(display-p3 0.7843 0.3216 0.4157);stroke-opacity:1;" stroke-width="2" stroke-linecap="round" stroke-linejoin="round"/>
<path d="M520.161 982.418C519.765 986.326 519.368 990.291 518.972 994.199" stroke="#C8526A" style="stroke:#C8526A;stroke:color(display-p3 0.7843 0.3216 0.4157);stroke-opacity:1;" stroke-width="2" stroke-linecap="round" stroke-linejoin="round"/>
<path d="M992.141 314.522C991.745 318.43 991.348 322.395 990.952 326.303" stroke="#C8526A" style="stroke:#C8526A;stroke:color(display-p3 0.7843 0.3216 0.4157);stroke-opacity:1;" stroke-width="2" stroke-linecap="round" stroke-linejoin="round"/>
<path d="M262.903 70.292C256.22 75.786 249.536 81.2801 242.853 86.8308" stroke="#C8526A" style="stroke:#C8526A;stroke:color(display-p3 0.7843 0.3216 0.4157);stroke-opacity:1;" stroke-width="2" stroke-linecap="round" stroke-linejoin="round"/>
<path d="M877.728 588.318C878.125 592.227 878.521 596.191 878.918 600.099" stroke="#C8526A" style="stroke:#C8526A;stroke:color(display-p3 0.7843 0.3216 0.4157);stroke-opacity:1;" stroke-width="2" stroke-linecap="round" stroke-linejoin="round"/>
<path d="M596.851 939.938H607.499" stroke="#C8526A" style="stroke:#C8526A;stroke:color(display-p3 0.7843 0.3216 0.4157);stroke-opacity:1;" stroke-width="2" stroke-linecap="round" stroke-linejoin="round"/>
<path d="M221.613 577.67C220.48 579.652 219.348 581.635 218.215 583.56C218.951 585.09 219.688 586.676 220.424 588.262" stroke="#C8526A" style="stroke:#C8526A;stroke:color(display-p3 0.7843 0.3216 0.4157);stroke-opacity:1;" stroke-width="2" stroke-linecap="round" stroke-linejoin="round"/>
<path d="M192.104 164.655C195.616 165.051 199.184 165.448 202.752 165.844" stroke="#C8526A" style="stroke:#C8526A;stroke:color(display-p3 0.7843 0.3216 0.4157);stroke-opacity:1;" stroke-width="2" stroke-linecap="round" stroke-linejoin="round"/>
<path d="M253.501 385.322C254.124 390.476 254.747 395.574 255.483 401.465C254.35 401.578 252.708 401.691 251.122 401.804" stroke="#C8526A" style="stroke:#C8526A;stroke:color(display-p3 0.7843 0.3216 0.4157);stroke-opacity:1;" stroke-width="2" stroke-linecap="round" stroke-linejoin="round"/>
<path d="M982.737 708.678H972.089" stroke="#C8526A" style="stroke:#C8526A;stroke:color(display-p3 0.7843 0.3216 0.4157);stroke-opacity:1;" stroke-width="2" stroke-linecap="round" stroke-linejoin="round"/>
<path d="M222.803 657.93C216.856 659.289 210.909 660.648 205.132 661.951C205.018 661.441 204.735 660.309 204.508 659.119" stroke="#C8526A" style="stroke:#C8526A;stroke:color(display-p3 0.7843 0.3216 0.4157);stroke-opacity:1;" stroke-width="2" stroke-linecap="round" stroke-linejoin="round"/>
<path d="M400.991 52.564C399.008 55.7358 397.083 58.851 395.1 62.0229" stroke="#C8526A" style="stroke:#C8526A;stroke:color(display-p3 0.7843 0.3216 0.4157);stroke-opacity:1;" stroke-width="2" stroke-linecap="round" stroke-linejoin="round"/>
<path d="M959.12 210.702C958.723 213.873 958.327 216.989 957.93 220.161" stroke="#C8526A" style="stroke:#C8526A;stroke:color(display-p3 0.7843 0.3216 0.4157);stroke-opacity:1;" stroke-width="2" stroke-linecap="round" stroke-linejoin="round"/>
<path d="M1006.36 472.66C1005.96 475.832 1005.56 478.947 1005.17 482.119" stroke="#C8526A" style="stroke:#C8526A;stroke:color(display-p3 0.7843 0.3216 0.4157);stroke-opacity:1;" stroke-width="2" stroke-linecap="round" stroke-linejoin="round"/>
<path d="M26.9423 333.44C27.3387 336.612 27.7352 339.727 28.1316 342.899" stroke="#C8526A" style="stroke:#C8526A;stroke:color(display-p3 0.7843 0.3216 0.4157);stroke-opacity:1;" stroke-width="2" stroke-linecap="round" stroke-linejoin="round"/>
<path d="M609.878 76.1826C609.482 79.3544 609.085 82.4696 608.689 85.6414" stroke="#C8526A" style="stroke:#C8526A;stroke:color(display-p3 0.7843 0.3216 0.4157);stroke-opacity:1;" stroke-width="2" stroke-linecap="round" stroke-linejoin="round"/>
<path d="M876.537 139.902C876.934 143.074 877.33 146.189 877.727 149.361" stroke="#C8526A" style="stroke:#C8526A;stroke:color(display-p3 0.7843 0.3216 0.4157);stroke-opacity:1;" stroke-width="2" stroke-linecap="round" stroke-linejoin="round"/>
<path d="M1009.87 571.779C1010.26 574.951 1010.66 578.066 1011.06 581.238" stroke="#C8526A" style="stroke:#C8526A;stroke:color(display-p3 0.7843 0.3216 0.4157);stroke-opacity:1;" stroke-width="2" stroke-linecap="round" stroke-linejoin="round"/>
<path d="M986.249 713.379C986.645 716.551 987.042 719.666 987.438 722.838" stroke="#C8526A" style="stroke:#C8526A;stroke:color(display-p3 0.7843 0.3216 0.4157);stroke-opacity:1;" stroke-width="2" stroke-linecap="round" stroke-linejoin="round"/>
<path d="M800.981 843.197C801.378 846.369 801.774 849.484 802.171 852.656" stroke="#C8526A" style="stroke:#C8526A;stroke:color(display-p3 0.7843 0.3216 0.4157);stroke-opacity:1;" stroke-width="2" stroke-linecap="round" stroke-linejoin="round"/>
<path d="M481.25 401.86C480.854 405.032 480.457 408.147 480.061 411.319" stroke="#C8526A" style="stroke:#C8526A;stroke:color(display-p3 0.7843 0.3216 0.4157);stroke-opacity:1;" stroke-width="2" stroke-linecap="round" stroke-linejoin="round"/>
<path d="M386.831 629.609C387.227 632.385 387.624 635.103 388.02 637.879" stroke="#C8526A" style="stroke:#C8526A;stroke:color(display-p3 0.7843 0.3216 0.4157);stroke-opacity:1;" stroke-width="2" stroke-linecap="round" stroke-linejoin="round"/>
<path d="M552.05 1009.55C549.728 1012.32 547.349 1015.1 545.593 1017.19H532.736C533.415 1014.59 533.868 1012.66 534.378 1010.68" stroke="#C8526A" style="stroke:#C8526A;stroke:color(display-p3 0.7843 0.3216 0.4157);stroke-opacity:1;" stroke-width="2" stroke-linecap="round" stroke-linejoin="round"/>
</svg>
